<svg xmlns="http://www.w3.org/2000/svg" xmlns:xlink="http://www.w3.org/1999/xlink" width="211" zoomAndPan="magnify" viewBox="0 0 158.25 145.499993" height="194" preserveAspectRatio="xMidYMid meet" version="1.2"><defs><clipPath id="53ee0ae979"><path d="M 109.625 4.070312 L 131.253906 4.070312 L 131.253906 9.480469 L 109.625 9.480469 Z M 109.625 4.070312 "/></clipPath><clipPath id="8ea2aa563d"><path d="M 112.625 6.027344 C 112.773438 6.925781 113.371094 6.699219 114.117188 6.625 C 115.761719 6.253906 120.539062 4.238281 122.253906 4.089844 C 122.925781 4.089844 123.226562 4.089844 123.824219 4.386719 C 124.644531 4.757812 125.613281 6.625 126.660156 6.773438 C 127.777344 6.925781 129.496094 4.835938 130.242188 5.058594 C 130.765625 5.207031 131.289062 6.179688 131.210938 6.625 C 131.136719 7.148438 130.019531 7.894531 129.496094 7.894531 C 129.046875 7.894531 128.523438 7.445312 128.375 7.074219 C 128.226562 6.625 128.449219 5.65625 128.75 5.28125 C 129.046875 4.984375 129.71875 4.910156 130.09375 4.984375 C 130.539062 5.207031 131.210938 5.953125 131.210938 6.476562 C 131.210938 7.148438 129.792969 8.34375 128.972656 8.867188 C 128.300781 9.238281 127.703125 9.535156 126.882812 9.460938 C 125.613281 9.386719 123.898438 7.371094 122.105469 7.222656 C 119.71875 7 116.058594 9.460938 113.894531 9.460938 C 112.550781 9.460938 111.28125 9.015625 110.535156 8.417969 C 110.011719 8.042969 109.640625 7.371094 109.640625 6.773438 C 109.566406 6.179688 110.085938 4.910156 110.535156 4.609375 C 110.910156 4.386719 111.582031 4.535156 111.953125 4.757812 C 112.253906 5.058594 112.625 6.027344 112.625 6.027344 "/></clipPath><clipPath id="2a8f6d2530"><path d="M 129.253906 3.070312 L 154.359375 3.070312 L 154.359375 10.429688 L 129.253906 10.429688 Z M 129.253906 3.070312 "/></clipPath><clipPath id="acbbabf194"><path d="M 130.765625 7.410156 C 153.90625 3.378906 154.351562 4.273438 154.351562 4.722656 C 154.351562 5.246094 153.53125 5.992188 153.082031 6.066406 C 152.5625 6.066406 151.441406 5.171875 151.367188 4.648438 C 151.367188 4.199219 152.335938 3.082031 152.859375 3.082031 C 153.308594 3.003906 154.203125 3.675781 154.277344 4.125 C 154.425781 4.648438 153.980469 5.542969 153.234375 5.992188 C 151.890625 6.886719 148.230469 6.289062 145.320312 6.8125 C 141.738281 7.558594 136.140625 10.246094 133.226562 10.394531 C 131.660156 10.46875 130.09375 10.246094 129.570312 9.722656 C 129.273438 9.425781 129.195312 8.753906 129.421875 8.378906 C 129.570312 7.933594 130.765625 7.410156 130.765625 7.410156 "/></clipPath><clipPath id="346e7ffad2"><path d="M 114.941406 29.394531 L 116.382812 29.394531 L 116.382812 30.609375 L 114.941406 30.609375 Z M 114.941406 29.394531 "/></clipPath><clipPath id="f8e297528c"><path d="M 116.359375 29.839844 C 115.761719 30.8125 115.164062 30.660156 115.015625 30.4375 C 114.863281 30.214844 115.015625 29.617188 115.164062 29.46875 C 115.386719 29.316406 116.207031 29.542969 116.207031 29.542969 "/></clipPath><clipPath id="2913b2040f"><path d="M 116.628906 27 L 120.253906 27 L 120.253906 29.269531 L 116.628906 29.269531 Z M 116.628906 27 "/></clipPath><clipPath id="b21c5bda4d"><path d="M 117.105469 27.824219 C 119.867188 26.78125 120.238281 27.078125 120.238281 27.304688 C 120.3125 27.527344 119.867188 28.199219 119.71875 28.199219 C 119.417969 28.199219 118.820312 27.226562 118.894531 27.078125 C 118.96875 26.929688 120.164062 27.003906 120.238281 27.226562 C 120.3125 27.527344 118.296875 29.167969 117.625 29.242188 C 117.253906 29.242188 116.730469 28.945312 116.65625 28.722656 C 116.582031 28.496094 117.105469 27.824219 117.105469 27.824219 "/></clipPath><clipPath id="b7858337d9"><path d="M 113 30.839844 L 113.535156 30.839844 L 113.535156 31.421875 L 113 31.421875 Z M 113 30.839844 "/></clipPath><clipPath id="03e75fddaa"><path d="M 113.074219 31.410156 C 112.773438 30.511719 113.519531 30.960938 113.519531 30.960938 "/></clipPath><clipPath id="0af2786468"><path d="M 108.796875 29.894531 L 151.238281 29.894531 L 151.238281 40.964844 L 108.796875 40.964844 Z M 108.796875 29.894531 "/></clipPath><clipPath id="8d6ef7cd9b"><path d="M 113.96875 30.511719 C 110.460938 34.09375 109.492188 35.515625 109.492188 36.335938 C 109.492188 36.859375 109.640625 37.15625 110.011719 37.53125 C 110.757812 38.277344 112.476562 39.394531 114.191406 39.84375 C 116.730469 40.515625 120.089844 40.367188 124.121094 39.84375 C 130.914062 39.023438 150.097656 34.394531 151.070312 32.828125 C 151.21875 32.527344 150.84375 32.082031 150.84375 32.082031 C 150.917969 32.082031 151.292969 32.453125 151.21875 32.753906 C 150.621094 33.945312 138.601562 37.007812 133.527344 38.425781 C 129.792969 39.46875 126.511719 40.441406 123.597656 40.738281 C 121.507812 41.039062 119.867188 40.964844 118 40.8125 C 116.058594 40.664062 113.746094 40.664062 112.175781 39.917969 C 110.757812 39.246094 109.042969 38.125 108.820312 36.859375 C 108.59375 35.363281 110.683594 32.601562 111.65625 31.410156 C 112.328125 30.660156 113.222656 29.839844 113.597656 29.914062 C 113.820312 29.988281 113.96875 30.511719 113.96875 30.511719 "/></clipPath><clipPath id="2276983e5e"><path d="M 106.707031 28.699219 L 113.703125 28.699219 L 113.703125 32.253906 L 106.707031 32.253906 Z M 106.707031 28.699219 "/></clipPath><clipPath id="9493dcac84"><path d="M 112.773438 30.960938 C 107.027344 32.003906 106.730469 31.109375 106.804688 30.738281 C 106.878906 30.4375 107.625 29.988281 107.921875 29.988281 C 108.296875 30.066406 108.894531 30.585938 108.96875 30.960938 C 109.042969 31.257812 108.820312 31.707031 108.667969 31.929688 C 108.445312 32.15625 107.921875 32.304688 107.625 32.230469 C 107.25 32.15625 106.730469 31.558594 106.730469 31.183594 C 106.730469 30.886719 107.027344 30.4375 107.476562 30.066406 C 108.371094 29.46875 111.355469 28.570312 112.402344 28.722656 C 113 28.796875 113.597656 29.167969 113.671875 29.542969 C 113.746094 29.914062 112.773438 30.960938 112.773438 30.960938 "/></clipPath><clipPath id="accb0f9d51"><path d="M 106.917969 30.144531 L 113.296875 30.144531 L 113.296875 33.535156 L 106.917969 33.535156 Z M 106.917969 30.144531 "/></clipPath><clipPath id="60397a6ed1"><path d="M 112.625 32.378906 C 107.25 33.347656 106.953125 32.753906 106.953125 32.378906 C 106.953125 32.003906 107.476562 31.410156 107.773438 31.332031 C 108.222656 31.257812 109.117188 31.855469 109.191406 32.230469 C 109.191406 32.601562 108.222656 33.574219 107.847656 33.5 C 107.550781 33.5 106.953125 32.902344 106.953125 32.527344 C 106.953125 32.15625 107.25 31.707031 107.699219 31.410156 C 108.519531 30.8125 111.355469 29.988281 112.328125 30.214844 C 112.847656 30.363281 113.296875 30.960938 113.296875 31.332031 C 113.296875 31.707031 112.625 32.378906 112.625 32.378906 "/></clipPath><clipPath id="11794163fa"><path d="M 120.769531 25.65625 L 123.046875 25.65625 L 123.046875 29.441406 L 120.769531 29.441406 Z M 120.769531 25.65625 "/></clipPath><clipPath id="9d7413cb14"><path d="M 123 27.003906 C 121.957031 29.542969 121.433594 29.394531 121.210938 29.167969 C 120.910156 28.871094 120.761719 28.125 120.910156 27.824219 C 121.0625 27.527344 121.808594 27.152344 122.105469 27.226562 C 122.402344 27.226562 122.851562 27.601562 122.925781 27.898438 C 123.074219 28.125 123.074219 28.648438 122.851562 28.945312 C 122.628906 29.167969 121.957031 29.542969 121.582031 29.394531 C 121.136719 29.167969 120.613281 27.226562 120.835938 26.554688 C 120.984375 26.109375 121.65625 25.660156 122.03125 25.660156 C 122.402344 25.734375 123 27.003906 123 27.003906 "/></clipPath><clipPath id="dd14438cc2"><path d="M 0 92 L 31 92 L 31 144.90625 L 0 144.90625 Z M 0 92 "/></clipPath><clipPath id="025872f20d"><path d="M 0 99 L 68 99 L 68 144.90625 L 0 144.90625 Z M 0 99 "/></clipPath></defs><g id="9f0e694df1"><g clip-rule="nonzero" clip-path="url(#53ee0ae979)"><g clip-rule="nonzero" clip-path="url(#8ea2aa563d)"><path style=" stroke:none;fill-rule:nonzero;fill:#ffffff;fill-opacity:1;" d="M 106.652344 1.101562 L 134.265625 1.101562 L 134.265625 12.449219 L 106.652344 12.449219 Z M 106.652344 1.101562 "/></g></g><g clip-rule="nonzero" clip-path="url(#2a8f6d2530)"><g clip-rule="nonzero" clip-path="url(#acbbabf194)"><path style=" stroke:none;fill-rule:nonzero;fill:#ffffff;fill-opacity:1;" d="M 126.433594 0.09375 L 157.4375 0.09375 L 157.4375 13.457031 L 126.433594 13.457031 Z M 126.433594 0.09375 "/></g></g><g clip-rule="nonzero" clip-path="url(#346e7ffad2)"><g clip-rule="nonzero" clip-path="url(#f8e297528c)"><path style=" stroke:none;fill-rule:nonzero;fill:#ffffff;fill-opacity:1;" d="M 112.027344 26.480469 L 119.410156 26.480469 L 119.410156 33.722656 L 112.027344 33.722656 Z M 112.027344 26.480469 "/></g></g><g clip-rule="nonzero" clip-path="url(#2913b2040f)"><g clip-rule="nonzero" clip-path="url(#b21c5bda4d)"><path style=" stroke:none;fill-rule:nonzero;fill:#ffffff;fill-opacity:1;" d="M 113.671875 23.71875 L 123.308594 23.71875 L 123.308594 32.230469 L 113.671875 32.230469 Z M 113.671875 23.71875 "/></g></g><g clip-rule="nonzero" clip-path="url(#b7858337d9)"><g clip-rule="nonzero" clip-path="url(#03e75fddaa)"><path style=" stroke:none;fill-rule:nonzero;fill:#ffffff;fill-opacity:1;" d="M 109.714844 27.601562 L 116.507812 27.601562 L 116.507812 34.472656 L 109.714844 34.472656 Z M 109.714844 27.601562 "/></g></g><g clip-rule="nonzero" clip-path="url(#0af2786468)"><g clip-rule="nonzero" clip-path="url(#8d6ef7cd9b)"><path style=" stroke:none;fill-rule:nonzero;fill:#ffffff;fill-opacity:1;" d="M 105.832031 26.929688 L 154.203125 26.929688 L 154.203125 43.800781 L 105.832031 43.800781 Z M 105.832031 26.929688 "/></g></g><path style="fill:none;stroke-width:2;stroke-linecap:round;stroke-linejoin:miter;stroke:#ffffff;stroke-opacity:1;stroke-miterlimit:4;" d="M 1.213896 10.504166 C 77.655472 -2.078578 128.252922 -2.166569 153.009456 10.236045 " transform="matrix(0.589153,-0.455783,0.455783,0.589153,16.743306,94.560025)"/><g clip-rule="nonzero" clip-path="url(#2276983e5e)"><g clip-rule="nonzero" clip-path="url(#9493dcac84)"><path style=" stroke:none;fill-rule:nonzero;fill:#ffffff;fill-opacity:1;" d="M 103.742188 25.734375 L 116.742188 25.734375 L 116.742188 35.214844 L 103.742188 35.214844 Z M 103.742188 25.734375 "/></g></g><g clip-rule="nonzero" clip-path="url(#accb0f9d51)"><g clip-rule="nonzero" clip-path="url(#60397a6ed1)"><path style=" stroke:none;fill-rule:nonzero;fill:#ffffff;fill-opacity:1;" d="M 103.964844 27.226562 L 116.359375 27.226562 L 116.359375 36.558594 L 103.964844 36.558594 Z M 103.964844 27.226562 "/></g></g><g clip-rule="nonzero" clip-path="url(#11794163fa)"><g clip-rule="nonzero" clip-path="url(#9d7413cb14)"><path style=" stroke:none;fill-rule:nonzero;fill:#ffffff;fill-opacity:1;" d="M 117.851562 22.675781 L 126.0625 22.675781 L 126.0625 32.394531 L 117.851562 32.394531 Z M 117.851562 22.675781 "/></g></g><g clip-rule="nonzero" clip-path="url(#dd14438cc2)"><path style="fill:none;stroke-width:2;stroke-linecap:round;stroke-linejoin:miter;stroke:#ffffff;stroke-opacity:1;stroke-miterlimit:4;" d="M 1.216907 8.770561 C 4.205783 -1.824593 22.358431 -1.583044 55.674852 9.495208 " transform="matrix(0.275463,-0.693777,0.693777,0.275463,0.00185258,136.697826)"/></g><g clip-rule="nonzero" clip-path="url(#025872f20d)"><path style="fill:none;stroke-width:2;stroke-linecap:round;stroke-linejoin:miter;stroke:#ffffff;stroke-opacity:1;stroke-miterlimit:4;" d="M 1.251276 8.718099 C 48.933396 -1.353154 75.916916 -1.566344 82.19731 8.075902 " transform="matrix(-0.64557,0.374761,-0.374761,-0.64557,62.887489,112.893585)"/></g><path style="fill:none;stroke-width:2;stroke-linecap:round;stroke-linejoin:miter;stroke:#ffffff;stroke-opacity:1;stroke-miterlimit:4;" d="M 1.090154 2.096396 C 47.662346 0.651659 78.803497 0.635259 94.513361 2.039491 " transform="matrix(-0.547539,0.512009,-0.489448,-0.523413,110.072198,61.800832)"/><path style="fill:none;stroke-width:2;stroke-linecap:round;stroke-linejoin:miter;stroke:#ffffff;stroke-opacity:1;stroke-miterlimit:4;" d="M 1.270525 2.254435 C 8.161386 0.520826 22.454203 0.581682 44.150706 2.448619 " transform="matrix(-0.427037,0.609094,-0.609094,-0.427037,128.099318,36.04042)"/><path style="fill:none;stroke-width:2;stroke-linecap:round;stroke-linejoin:miter;stroke:#ffffff;stroke-opacity:1;stroke-miterlimit:4;" d="M 1.486618 3.130687 C 5.380507 0.268252 9.127994 0.291275 12.712439 3.199535 " transform="matrix(0.244051,0.701055,-0.701055,0.244051,125.226504,25.955471)"/></g></svg>